# Blender v2.76 (sub 0) OBJ File: 'Spaceship.blend'
# www.blender.org
mtllib Spaceship.mtl
o Spaceship_Cube
v 0.328541 0.886930 0.375395
v 0.328541 0.886930 -1.294837
v 0.192835 1.046667 -1.294837
v 0.192835 0.200294 0.375395
v 0.192835 0.200294 -1.294837
v 0.192835 1.044578 0.459950
v 0.359906 0.686217 -1.294837
v 0.359906 0.686217 0.375395
v 0.192835 0.684897 -1.294837
v 0.328541 0.685176 0.965095
v 0.186271 0.200294 1.290520
v 0.328541 0.887214 0.692762
v 0.328541 0.424395 -1.294837
v 0.328541 0.424395 0.375395
v 0.192835 0.354503 -1.294837
v 0.282815 0.422072 1.141347
v 0.192835 0.475805 1.290520
v 0.151441 0.274709 -3.224740
v 0.170786 0.958051 0.677088
v 0.293590 0.835139 0.677088
v 0.293590 0.652310 0.923529
v 0.170786 0.712163 1.058520
v 0.170786 0.977543 0.466410
v 0.170786 0.462845 1.218015
v 0.631604 1.058289 -1.288305
v 0.631604 1.058289 0.373027
v 0.425075 0.820445 -0.395395
v 0.631604 0.205406 -1.288305
v 0.631604 0.205406 0.373027
v 0.919355 1.064508 -1.288305
v 0.919355 1.064508 0.373027
v 1.056377 0.695870 0.373027
v 1.011179 0.216733 -1.288305
v 0.919355 0.216733 0.373027
v 0.425075 0.820445 0.375395
v 0.447008 0.680091 0.375395
v 0.425075 0.497006 0.375395
v 0.637236 0.935694 0.373026
v 0.838453 0.916834 0.373026
v 0.637236 0.339295 0.373026
v 0.934268 0.682265 0.373026
v 0.838453 0.378013 0.373026
v 0.447008 0.680091 -0.395395
v 0.425075 0.497006 -0.395395
v 0.637236 0.935694 -0.514938
v 0.637236 0.676892 -0.514938
v 0.838453 0.916834 -0.514938
v 0.637236 0.339295 -0.514938
v 0.934268 0.682265 -0.514938
v 0.838453 0.378013 -0.514938
v 0.639600 0.837618 -1.976220
v 0.958778 0.841265 -1.972124
v 0.841331 1.063305 -1.972124
v 0.640015 1.059560 -1.972124
v 0.449931 0.835450 -1.978655
v 0.427987 0.956346 -1.978655
v 1.087228 0.695870 -1.288305
v 1.056377 0.695870 -0.078046
v 1.329065 0.216733 0.373027
v 1.329065 0.216733 -1.288305
v 0.361683 0.274093 -1.294837
v 0.602361 0.022091 -1.288305
v 0.361683 0.274093 0.375395
v 0.602361 0.022091 0.373027
v 0.965460 0.020782 0.373027
v 0.982156 0.020782 -1.288305
v 1.299648 0.002806 0.373027
v 1.299648 0.002806 -1.288305
v 1.606266 0.147785 0.353681
v 1.683649 0.147785 -1.288305
v 1.577040 -0.002518 0.353681
v 1.654423 -0.002518 -1.288305
v 0.715436 0.205406 1.095459
v 0.946046 0.216733 2.258331
v 1.221926 0.158516 2.484415
v 0.686112 0.018412 1.095459
v 0.953320 0.016538 2.258331
v 1.192700 0.008214 2.484415
v 1.499335 -0.002518 1.222092
v 1.528561 0.147785 1.222092
v 0.604760 0.175178 2.104465
v 0.626148 0.158516 3.533537
v 0.948027 0.162994 3.043458
v 0.575855 0.024875 2.098977
v 0.597242 0.008214 3.528049
v 0.918802 0.012692 3.043458
v 0.191192 0.140574 2.677095
v 0.184900 0.150973 4.056996
v 0.186460 -0.000207 2.671607
v 0.180168 0.010192 4.051507
v 0.192835 0.200294 -3.224740
v 0.151441 0.956914 -2.660632
v 0.192835 1.046667 -3.224740
v 0.192835 0.354503 -3.224740
v 0.192835 0.684897 -3.224740
v 1.258539 0.004884 1.184602
v 0.972935 0.018498 1.135392
v 0.933644 0.216733 1.131573
v 1.287764 0.194291 1.186950
v 0.291906 0.871084 0.689086
v 0.174003 0.498479 1.252937
v 0.174003 1.007805 0.486815
v 0.291906 0.695551 0.925694
v 0.151441 0.956914 -3.224740
v 0.151441 0.399007 -3.224740
v 0.151441 0.665315 -3.224740
v 0.151441 0.665315 -2.660632
v 0.151441 0.399007 -2.660632
v 0.151441 0.274709 -2.660632
v 1.325373 0.573505 -1.288305
v 1.320704 0.579115 0.024812
v 1.343389 0.412830 -1.288305
v 1.340590 0.414700 0.170684
v 0.631009 0.689815 -1.292402
v 1.023006 0.579180 0.031809
v 0.979329 0.426452 0.175591
v 0.529271 0.835450 -2.539322
v 0.647170 0.837618 -2.536888
v 0.845573 0.841265 -2.532791
v 0.772568 1.063305 -2.532791
v 0.647429 1.059560 -2.532791
v 0.515631 0.956346 -2.539322
v 1.070357 0.524903 0.081556
v 1.090028 0.593688 0.016800
v 1.009258 0.311253 0.282692
v 1.250769 0.311253 0.282692
v 1.245840 0.524865 0.077432
v 1.257562 0.427948 0.163419
v 1.044611 0.434875 0.166311
v 1.070357 0.524903 -1.018275
v 1.090028 0.593688 -1.083031
v 1.009258 0.311253 -0.817139
v 1.250769 0.311253 -0.817139
v 1.245840 0.524865 -1.022399
v 1.257562 0.427948 -0.936413
v 1.044611 0.434875 -0.933520
v -0.328541 0.886930 0.375395
v -0.328541 0.886930 -1.294837
v -0.192835 1.046667 -1.294837
v -0.192835 0.200294 0.375395
v -0.192835 0.200294 -1.294837
v -0.192835 1.044578 0.459950
v -0.359906 0.686217 -1.294837
v -0.359906 0.686217 0.375395
v -0.192835 0.684897 -1.294837
v -0.328541 0.685176 0.965095
v -0.186271 0.200294 1.290520
v -0.328541 0.887214 0.692762
v -0.328541 0.424395 -1.294837
v -0.328541 0.424395 0.375395
v -0.192835 0.354503 -1.294837
v -0.282815 0.422072 1.141347
v -0.192835 0.475805 1.290520
v -0.151441 0.274709 -3.224740
v -0.170786 0.958051 0.677088
v -0.293590 0.835139 0.677088
v -0.293590 0.652310 0.923529
v -0.170786 0.712163 1.058520
v -0.170786 0.977543 0.466410
v -0.170786 0.462845 1.218015
v -0.631604 1.058289 -1.288305
v -0.631604 1.058289 0.373027
v -0.425075 0.820445 -0.395395
v -0.631604 0.205406 -1.288305
v -0.631604 0.205406 0.373027
v -0.919355 1.064508 -1.288305
v -0.919355 1.064508 0.373027
v -1.056377 0.695870 0.373027
v -1.011179 0.216733 -1.288305
v -0.919355 0.216733 0.373027
v -0.425075 0.820445 0.375395
v -0.447008 0.680091 0.375395
v -0.425075 0.497006 0.375395
v -0.637236 0.935694 0.373026
v -0.838453 0.916834 0.373026
v -0.637236 0.339295 0.373026
v -0.934268 0.682265 0.373026
v -0.838453 0.378013 0.373026
v -0.447008 0.680091 -0.395395
v -0.425075 0.497006 -0.395395
v -0.637236 0.935694 -0.514938
v -0.637236 0.676892 -0.514938
v -0.838453 0.916834 -0.514938
v -0.637236 0.339295 -0.514938
v -0.934268 0.682265 -0.514938
v -0.838453 0.378013 -0.514938
v -0.639600 0.837618 -1.976220
v -0.958778 0.841265 -1.972124
v -0.841331 1.063305 -1.972124
v -0.640015 1.059560 -1.972124
v -0.449931 0.835450 -1.978655
v -0.427987 0.956346 -1.978655
v -1.087228 0.695870 -1.288305
v -1.056377 0.695870 -0.078046
v -1.329065 0.216733 0.373027
v -1.329065 0.216733 -1.288305
v -0.361683 0.274093 -1.294837
v -0.602361 0.022091 -1.288305
v -0.361683 0.274093 0.375395
v -0.602361 0.022091 0.373027
v -0.965460 0.020782 0.373027
v -0.982156 0.020782 -1.288305
v -1.299648 0.002806 0.373027
v -1.299648 0.002806 -1.288305
v -1.606266 0.147785 0.353681
v -1.683649 0.147785 -1.288305
v -1.577040 -0.002518 0.353681
v -1.654423 -0.002518 -1.288305
v -0.715436 0.205406 1.095459
v -0.946046 0.216733 2.258331
v -1.221926 0.158516 2.484415
v -0.686112 0.018412 1.095459
v -0.953320 0.016538 2.258331
v -1.192700 0.008214 2.484415
v -1.499335 -0.002518 1.222092
v -1.528561 0.147785 1.222092
v -0.604760 0.175178 2.104465
v -0.626148 0.158516 3.533537
v -0.948027 0.162994 3.043458
v -0.575855 0.024875 2.098977
v -0.597242 0.008214 3.528049
v -0.918802 0.012692 3.043458
v -0.191192 0.140574 2.677095
v -0.184900 0.150973 4.056996
v -0.186460 -0.000207 2.671607
v -0.180168 0.010192 4.051507
v -0.192835 0.200294 -3.224740
v -0.151441 0.956914 -2.660632
v -0.192835 1.046667 -3.224740
v -0.192835 0.354503 -3.224740
v -0.192835 0.684897 -3.224740
v -1.258539 0.004884 1.184602
v -0.972935 0.018498 1.135392
v -0.933644 0.216733 1.131573
v -1.287764 0.194291 1.186950
v -0.291906 0.871084 0.689086
v -0.174003 0.498479 1.252937
v -0.174003 1.007805 0.486815
v -0.291906 0.695551 0.925694
v -0.151441 0.956914 -3.224740
v -0.151441 0.399007 -3.224740
v -0.151441 0.665315 -3.224740
v -0.151441 0.665315 -2.660632
v -0.151441 0.399007 -2.660632
v -0.151441 0.274709 -2.660632
v -1.325373 0.573505 -1.288305
v -1.320704 0.579115 0.024812
v -1.343389 0.412830 -1.288305
v -1.340590 0.414700 0.170684
v -0.631009 0.689815 -1.292402
v -1.023006 0.579180 0.031809
v -0.979329 0.426452 0.175591
v -0.529271 0.835450 -2.539322
v -0.647170 0.837618 -2.536888
v -0.845573 0.841265 -2.532791
v -0.772568 1.063305 -2.532791
v -0.647429 1.059560 -2.532791
v -0.515631 0.956346 -2.539322
v -1.070357 0.524903 0.081556
v -1.090028 0.593688 0.016800
v -1.009258 0.311253 0.282692
v -1.250769 0.311253 0.282692
v -1.245840 0.524865 0.077432
v -1.257562 0.427948 0.163419
v -1.044611 0.434875 0.166311
v -1.070357 0.524903 -1.018275
v -1.090028 0.593688 -1.083031
v -1.009258 0.311253 -0.817139
v -1.250769 0.311253 -0.817139
v -1.245840 0.524865 -1.022399
v -1.257562 0.427948 -0.936413
v -1.044611 0.434875 -0.933520
vn 0.678800 0.606400 0.414100
vn 0.000000 0.538900 0.842400
vn 0.000000 0.995700 0.092100
vn 0.765200 0.346900 0.542300
vn 0.705900 0.705300 0.065300
vn 0.000000 0.840500 0.541800
vn -0.678800 0.606400 0.414100
vn -0.765200 0.346900 0.542300
vn -0.705900 0.705300 0.065300
vn 0.000000 0.000000 -1.000000
vn 0.890300 -0.454700 0.027100
vn 0.000000 -1.000000 0.000000
vn 0.760100 0.649900 0.000400
vn 1.000000 0.000000 0.000000
vn 0.994300 0.100700 0.034500
vn 0.990400 -0.126600 0.056000
vn 0.000000 -0.559100 0.829100
vn -0.949800 0.148100 -0.275700
vn 0.000000 1.000000 0.000000
vn 0.000000 0.699900 -0.714200
vn 0.852900 -0.020300 0.521800
vn 0.869700 0.161300 0.466500
vn 0.000000 0.856200 0.516600
vn 0.000000 0.000000 1.000000
vn 0.000000 0.589900 0.807500
vn -0.998900 -0.037500 -0.027800
vn -0.897600 -0.176800 0.403700
vn 0.855400 -0.518000 0.000000
vn -0.021600 0.999800 0.000000
vn -0.492200 0.870500 0.000000
vn 0.988000 0.154400 0.000000
vn -0.925700 -0.378100 0.000000
vn -0.189000 0.982000 0.000000
vn 0.992900 -0.118900 0.000000
vn 0.007100 0.003800 1.000000
vn 0.006800 -0.003300 1.000000
vn 0.504400 -0.021200 0.863200
vn 0.504900 0.027700 0.862700
vn -0.953800 0.300400 0.000000
vn 0.477300 -0.878700 0.000000
vn 0.596600 0.802600 0.000000
vn -0.093300 -0.995600 0.000000
vn 0.014500 -0.977300 -0.211200
vn -0.470500 0.882300 0.008500
vn 0.014500 -0.977400 -0.210800
vn 0.961500 -0.275000 -0.000000
vn 0.024300 0.000300 -0.999700
vn -0.723200 -0.690700 -0.000000
vn -0.003500 -1.000000 -0.000000
vn -0.055100 -0.998500 -0.000300
vn 0.028300 0.999500 0.014800
vn -0.976500 -0.215300 -0.000000
vn -0.016900 -0.999900 -0.000400
vn 0.008800 0.000100 1.000000
vn 0.980600 -0.190700 0.046200
vn 0.213400 0.977000 0.005000
vn -0.009900 -0.999900 -0.009300
vn 0.954500 -0.185600 0.233400
vn -0.981300 0.155200 0.114200
vn -0.030900 -0.999500 0.001000
vn 0.977900 -0.190100 0.087500
vn 0.119400 0.992700 0.017300
vn -0.041300 -0.999100 -0.000900
vn -0.816100 0.115700 -0.566200
vn 0.823200 -0.169100 0.541900
vn 0.153100 0.985900 0.067100
vn 0.884100 -0.171900 0.434500
vn -0.979600 0.170800 -0.105500
vn -0.028900 -0.999600 -0.006200
vn 0.216600 0.975800 0.028300
vn -0.044900 0.999000 0.003000
vn -0.999400 0.033800 -0.004800
vn 0.025400 -0.999700 -0.002400
vn -0.046100 0.998900 0.002500
vn 0.768700 -0.112600 0.629600
vn -0.052900 0.998100 0.032300
vn 0.927700 0.373100 0.008600
vn -0.050800 -0.998700 -0.001200
vn 0.184400 0.982200 0.036400
vn -0.001600 -1.000000 -0.003900
vn -0.024500 -0.999700 -0.000500
vn -0.012800 -0.999900 0.001300
vn -0.097300 0.995200 0.009600
vn -1.000000 0.000000 0.000000
vn -0.382000 0.742200 0.550600
vn -0.150800 0.864400 0.479700
vn 0.757700 0.652600 -0.000600
vn -0.358000 0.663400 0.657100
vn 0.896800 0.433200 -0.089700
vn 0.429000 0.903300 0.004000
vn 0.993100 0.116900 0.002400
vn 0.997900 -0.065000 0.000900
vn -0.022900 0.999700 0.001300
vn -0.973700 -0.161400 -0.160700
vn 0.017800 0.683300 0.729900
vn 0.015700 0.683000 0.730300
vn 0.005000 -0.004600 -1.000000
vn 0.013300 -0.006000 -0.999900
vn -0.020400 0.999800 0.001100
vn 0.019200 0.012000 -0.999700
vn -0.978800 -0.144000 -0.145800
vn -0.513000 0.857300 -0.043500
vn 0.014100 -0.999900 -0.001300
vn 0.909000 0.389800 -0.147500
vn 0.014100 -0.999900 0.001100
vn -0.404000 -0.914700 0.000000
vn -0.998300 0.058100 0.000000
vn 0.052400 0.712300 0.699900
vn 0.000000 0.690900 0.722900
vn 0.041100 0.665900 0.744900
vn 0.025400 0.673100 0.739100
vn 0.017300 0.682700 0.730500
vn 0.015200 0.698700 0.715200
vn -0.992800 -0.120100 0.000000
vn -0.890300 -0.454700 0.027100
vn -0.760100 0.649900 0.000400
vn -0.994300 0.100700 0.034500
vn -0.990400 -0.126600 0.056000
vn 0.949800 0.148100 -0.275700
vn -0.852900 -0.020300 0.521800
vn -0.869700 0.161300 0.466500
vn 0.998900 -0.037500 -0.027800
vn 0.897600 -0.176800 0.403700
vn -0.855400 -0.518000 0.000000
vn 0.021600 0.999800 0.000000
vn 0.492200 0.870500 0.000000
vn -0.988000 0.154400 0.000000
vn 0.925700 -0.378100 0.000000
vn 0.189000 0.982000 0.000000
vn -0.992900 -0.118900 0.000000
vn -0.007100 0.003800 1.000000
vn -0.006800 -0.003300 1.000000
vn -0.504400 -0.021200 0.863200
vn -0.504900 0.027700 0.862700
vn 0.953800 0.300400 0.000000
vn -0.477300 -0.878700 0.000000
vn -0.596600 0.802600 0.000000
vn 0.093300 -0.995600 0.000000
vn -0.014500 -0.977300 -0.211200
vn 0.470500 0.882300 0.008500
vn -0.014500 -0.977400 -0.210800
vn -0.961500 -0.275000 -0.000000
vn -0.024300 0.000300 -0.999700
vn 0.723200 -0.690700 -0.000000
vn 0.003500 -1.000000 -0.000000
vn 0.055100 -0.998500 -0.000300
vn -0.028300 0.999500 0.014800
vn 0.976500 -0.215300 -0.000000
vn 0.016900 -0.999900 -0.000400
vn -0.008800 0.000100 1.000000
vn -0.980600 -0.190700 0.046200
vn -0.213400 0.977000 0.005000
vn 0.009900 -0.999900 -0.009300
vn -0.954500 -0.185600 0.233400
vn 0.981300 0.155200 0.114200
vn 0.030900 -0.999500 0.001000
vn -0.977900 -0.190100 0.087500
vn -0.119400 0.992700 0.017300
vn 0.041300 -0.999100 -0.000900
vn 0.816100 0.115700 -0.566200
vn -0.823200 -0.169100 0.541900
vn -0.153100 0.985900 0.067100
vn -0.884100 -0.171900 0.434500
vn 0.979600 0.170800 -0.105500
vn 0.028900 -0.999600 -0.006200
vn -0.216600 0.975800 0.028300
vn 0.044900 0.999000 0.003000
vn 0.999400 0.033800 -0.004800
vn -0.025400 -0.999700 -0.002400
vn 0.046100 0.998900 0.002500
vn -0.768700 -0.112600 0.629600
vn 0.052900 0.998100 0.032300
vn -0.927700 0.373100 0.008600
vn 0.050800 -0.998700 -0.001200
vn -0.184400 0.982200 0.036400
vn 0.001600 -1.000000 -0.003900
vn 0.024500 -0.999700 -0.000500
vn 0.012800 -0.999900 0.001300
vn 0.097300 0.995200 0.009600
vn 0.382000 0.742200 0.550600
vn 0.150800 0.864400 0.479700
vn -0.757700 0.652600 -0.000600
vn 0.358000 0.663400 0.657100
vn -0.896800 0.433200 -0.089700
vn -0.429000 0.903300 0.004000
vn -0.993100 0.116900 0.002400
vn -0.997900 -0.065000 0.000900
vn 0.022900 0.999700 0.001300
vn 0.973700 -0.161400 -0.160700
vn -0.017800 0.683300 0.729900
vn -0.015700 0.683000 0.730300
vn -0.005000 -0.004600 -1.000000
vn -0.013300 -0.006000 -0.999900
vn 0.020400 0.999800 0.001100
vn -0.019200 0.012000 -0.999700
vn 0.978800 -0.144000 -0.145800
vn 0.513000 0.857300 -0.043500
vn -0.014100 -0.999900 -0.001300
vn -0.909000 0.389800 -0.147500
vn -0.014100 -0.999900 0.001100
vn 0.404000 -0.914700 0.000000
vn 0.998300 0.058100 0.000000
vn -0.052400 0.712300 0.699900
vn -0.041100 0.665900 0.744900
vn -0.025400 0.673100 0.739100
vn -0.017300 0.682700 0.730500
vn -0.015200 0.698700 0.715200
vn 0.992800 -0.120100 0.000000
vn 0.000000 1.000000 0.001200
usemtl Black
s off
f 20//1 19//1 22//1 21//1
f 158//2 160//2 24//2 22//2
f 159//3 155//3 19//3 23//3
f 21//4 22//4 24//4
f 20//5 23//5 19//5
f 155//6 158//6 22//6 19//6
f 156//7 157//7 158//7 155//7
f 157//8 160//8 158//8
f 156//9 155//9 159//9
usemtl White
f 15//10 13//10 5//10
f 14//11 16//11 11//11 4//11
f 4//12 140//12 141//12 5//12
f 104//10 240//10 229//10 93//10
f 1//13 2//13 3//13 6//13
f 141//12 227//12 91//12 5//12
f 3//14 9//14 95//14 93//14
f 15//14 5//14 91//14 94//14
f 8//15 1//15 12//15 10//15
f 14//16 8//16 10//16 16//16
f 3//10 2//10 7//10 9//10
f 238//17 159//17 23//17 102//17
f 101//18 103//18 21//18 24//18
f 93//19 229//19 139//19 3//19
f 24//20 160//20 237//20 101//20
f 16//21 17//21 11//21
f 16//22 10//22 17//22
f 101//23 237//23 153//23 17//23
f 153//24 147//24 11//24 17//24
f 28//10 33//10 66//10 62//10
f 9//10 7//10 13//10 15//10
f 142//25 238//25 102//25 6//25
f 103//26 100//26 20//26 21//26
f 100//27 102//27 23//27 20//27
f 4//28 5//28 13//28 14//28
f 227//10 154//10 18//10 91//10
f 34//24 32//24 41//24 42//24
f 25//29 26//29 31//29 30//29
f 8//24 14//24 37//24 36//24
f 2//30 1//30 26//30 25//30
f 31//24 26//24 38//24 39//24
f 33//10 60//10 68//10 66//10
f 32//24 31//24 39//24 41//24
f 35//31 36//31 43//31 27//31
f 41//32 39//32 47//32 49//32
f 40//33 42//33 50//33 48//33
f 36//34 37//34 44//34 43//34
f 1//24 8//24 36//24 35//24
f 26//35 1//35 35//35 38//35
f 29//24 34//24 42//24 40//24
f 14//36 29//36 40//36 37//36
f 46//24 48//24 50//24 49//24
f 43//37 44//37 48//37 46//37
f 27//38 43//38 46//38 45//38
f 45//24 46//24 49//24 47//24
f 42//39 41//39 49//39 50//39
f 38//40 35//40 27//40 45//40
f 37//41 40//41 48//41 44//41
f 39//42 38//42 45//42 47//42
f 114//43 7//43 55//43 51//43
f 2//44 25//44 54//44 56//44
f 57//45 114//45 51//45 52//45
f 58//46 32//46 34//46 116//46 115//46
f 13//47 28//47 62//47 61//47
f 63//48 61//48 62//48 64//48
f 64//49 62//49 66//49 65//49
f 65//50 66//50 68//50 67//50
f 59//51 34//51 98//51 99//51
f 14//52 13//52 61//52 63//52
f 67//53 68//53 72//53 71//53
f 29//54 14//54 63//54 64//54
f 70//55 69//55 71//55 72//55
f 68//10 60//10 70//10 72//10
f 60//56 59//56 69//56 70//56
f 85//57 84//57 77//57 86//57
f 75//58 78//58 79//58 80//58
f 29//59 64//59 76//59 73//59
f 78//60 96//60 79//60
f 71//61 69//61 80//61 79//61
f 99//62 98//62 74//62 75//62
f 97//63 96//63 78//63 77//63
f 81//64 84//64 89//64 87//64
f 83//65 82//65 85//65 86//65
f 75//66 74//66 83//66
f 78//67 75//67 83//67 86//67
f 73//68 76//68 84//68 81//68
f 77//69 78//69 86//69
f 59//70 99//70 80//70 69//70
f 34//71 29//71 73//71 98//71
f 88//72 87//72 89//72 90//72
f 84//73 85//73 90//73 89//73
f 82//74 81//74 87//74 88//74
f 85//75 82//75 88//75 90//75
f 95//10 94//10 105//10 106//10
f 94//10 91//10 18//10 105//10
f 93//10 95//10 106//10 104//10
f 9//14 15//14 94//14 95//14
f 11//12 147//12 140//12 4//12
f 82//76 83//76 74//76 81//76
f 30//77 31//77 32//77 58//77 57//77
f 65//78 67//78 96//78 97//78
f 99//79 75//79 80//79
f 64//80 65//80 97//80 76//80
f 67//81 71//81 79//81 96//81
f 77//82 84//82 76//82 97//82
f 73//83 81//83 74//83 98//83
f 105//84 18//84 109//84 108//84
f 10//85 12//85 100//85 103//85
f 92//12 228//12 240//12 104//12
f 17//86 10//86 103//86 101//86
f 1//87 6//87 12//87
f 106//84 105//84 108//84 107//84
f 12//88 6//88 102//88 100//88
f 107//10 243//10 228//10 92//10
f 154//19 245//19 109//19 18//19
f 109//10 245//10 244//10 108//10
f 108//10 244//10 243//10 107//10
f 104//84 106//84 107//84 92//84
f 30//89 57//89 52//89 53//89
f 58//90 111//90 110//90 57//90
f 111//91 113//91 112//91 110//91
f 113//92 59//92 60//92 112//92
f 54//93 53//93 120//93 121//93
f 7//94 2//94 56//94 55//94
f 111//95 58//95 124//95 127//95
f 58//96 115//96 123//96 124//96
f 115//96 116//96 129//96 123//96
f 33//97 28//97 114//97 57//97
f 28//98 13//98 7//98 114//98
f 60//10 33//10 57//10 110//10 112//10
f 25//99 30//99 53//99 54//99
f 117//100 122//100 121//100 120//100 119//100 118//100
f 55//101 56//101 122//101 117//101
f 56//102 54//102 121//102 122//102
f 52//103 51//103 118//103 119//103
f 53//104 52//104 119//104 120//104
f 51//105 55//105 117//105 118//105
f 124//46 123//46 130//46 131//46
f 127//106 124//106 131//106 134//106
f 126//107 128//107 135//107 133//107
f 59//108 113//108 128//108 126//108
f 34//109 59//109 126//109 125//109
f 113//110 111//110 127//110 128//110
f 116//96 34//96 125//96 129//96
f 135//111 134//111 130//111 136//111
f 134//112 131//112 130//112
f 132//113 133//113 135//113 136//113
f 129//46 125//46 132//46 136//46
f 128//114 127//114 134//114 135//114
f 125//19 126//19 133//19 132//19
f 123//46 129//46 136//46 130//46
f 151//10 141//10 149//10
f 150//115 140//115 147//115 152//115
f 137//116 142//116 139//116 138//116
f 139//84 229//84 231//84 145//84
f 151//84 230//84 227//84 141//84
f 144//117 146//117 148//117 137//117
f 150//118 152//118 146//118 144//118
f 139//10 145//10 143//10 138//10
f 237//119 160//119 157//119 239//119
f 152//120 147//120 153//120
f 152//121 153//121 146//121
f 164//10 198//10 202//10 169//10
f 145//10 151//10 149//10 143//10
f 239//122 157//122 156//122 236//122
f 236//123 156//123 159//123 238//123
f 140//124 150//124 149//124 141//124
f 170//24 178//24 177//24 168//24
f 161//125 166//125 167//125 162//125
f 144//24 172//24 173//24 150//24
f 138//126 161//126 162//126 137//126
f 167//24 175//24 174//24 162//24
f 169//10 202//10 204//10 196//10
f 168//24 177//24 175//24 167//24
f 171//127 163//127 179//127 172//127
f 177//128 185//128 183//128 175//128
f 176//129 184//129 186//129 178//129
f 172//130 179//130 180//130 173//130
f 137//24 171//24 172//24 144//24
f 162//131 174//131 171//131 137//131
f 165//24 176//24 178//24 170//24
f 150//132 173//132 176//132 165//132
f 182//24 185//24 186//24 184//24
f 179//133 182//133 184//133 180//133
f 163//134 181//134 182//134 179//134
f 181//24 183//24 185//24 182//24
f 178//135 186//135 185//135 177//135
f 174//136 181//136 163//136 171//136
f 173//137 180//137 184//137 176//137
f 175//138 183//138 181//138 174//138
f 250//139 187//139 191//139 143//139
f 138//140 192//140 190//140 161//140
f 193//141 188//141 187//141 250//141
f 194//142 251//142 252//142 170//142 168//142
f 149//143 197//143 198//143 164//143
f 199//144 200//144 198//144 197//144
f 200//145 201//145 202//145 198//145
f 201//146 203//146 204//146 202//146
f 195//147 235//147 234//147 170//147
f 150//148 199//148 197//148 149//148
f 203//149 207//149 208//149 204//149
f 165//150 200//150 199//150 150//150
f 206//151 208//151 207//151 205//151
f 204//10 208//10 206//10 196//10
f 196//152 206//152 205//152 195//152
f 221//153 222//153 213//153 220//153
f 211//154 216//154 215//154 214//154
f 165//155 209//155 212//155 200//155
f 214//156 215//156 232//156
f 207//157 215//157 216//157 205//157
f 235//158 211//158 210//158 234//158
f 233//159 213//159 214//159 232//159
f 217//160 223//160 225//160 220//160
f 219//161 222//161 221//161 218//161
f 211//162 219//162 210//162
f 214//163 222//163 219//163 211//163
f 209//164 217//164 220//164 212//164
f 213//165 222//165 214//165
f 195//166 205//166 216//166 235//166
f 170//167 234//167 209//167 165//167
f 224//168 226//168 225//168 223//168
f 220//169 225//169 226//169 221//169
f 218//170 224//170 223//170 217//170
f 221//171 226//171 224//171 218//171
f 231//10 242//10 241//10 230//10
f 230//10 241//10 154//10 227//10
f 229//10 240//10 242//10 231//10
f 145//84 231//84 230//84 151//84
f 218//172 217//172 210//172 219//172
f 166//173 193//173 194//173 168//173 167//173
f 201//174 233//174 232//174 203//174
f 235//175 216//175 211//175
f 200//176 212//176 233//176 201//176
f 203//177 232//177 215//177 207//177
f 213//178 233//178 212//178 220//178
f 209//179 234//179 210//179 217//179
f 241//14 244//14 245//14 154//14
f 146//180 239//180 236//180 148//180
f 153//181 237//181 239//181 146//181
f 137//182 148//182 142//182
f 242//14 243//14 244//14 241//14
f 148//183 236//183 238//183 142//183
f 240//14 228//14 243//14 242//14
f 166//184 189//184 188//184 193//184
f 194//185 193//185 246//185 247//185
f 247//186 246//186 248//186 249//186
f 249//187 248//187 196//187 195//187
f 190//188 257//188 256//188 189//188
f 143//189 191//189 192//189 138//189
f 247//190 263//190 260//190 194//190
f 194//191 260//191 259//191 251//191
f 251//191 259//191 265//191 252//191
f 169//192 193//192 250//192 164//192
f 164//193 250//193 143//193 149//193
f 196//10 248//10 246//10 193//10 169//10
f 161//194 190//194 189//194 166//194
f 253//195 254//195 255//195 256//195 257//195 258//195
f 191//196 253//196 258//196 192//196
f 192//197 258//197 257//197 190//197
f 188//198 255//198 254//198 187//198
f 189//199 256//199 255//199 188//199
f 187//200 254//200 253//200 191//200
f 260//142 267//142 266//142 259//142
f 263//201 270//201 267//201 260//201
f 262//202 269//202 271//202 264//202
f 195//203 262//203 264//203 249//203
f 170//109 261//109 262//109 195//109
f 249//204 264//204 263//204 247//204
f 252//191 265//191 261//191 170//191
f 271//205 272//205 266//205 270//205
f 270//206 266//206 267//206
f 268//207 272//207 271//207 269//207
f 265//142 272//142 268//142 261//142
f 264//208 271//208 270//208 263//208
f 261//19 268//19 269//19 262//19
f 259//142 266//142 272//142 265//142
f 142//209 6//209 3//209 139//209
